<svg xmlns="http://www.w3.org/2000/svg" viewBox="0 0 600 420"><ellipse cx="300" cy="338" rx="210" ry="34" fill="#53604b" opacity=".2"/><circle cx="300" cy="215" r="165" fill="#96633a"/><circle cx="300" cy="215" r="148" fill="#e5b866"/><circle cx="300" cy="215" r="128" fill="#eee0b7"/><g fill="#aa835f"><path d="M190 180c28-31 66-25 82 0-25 9-53 9-82 0z"/><path d="M330 135c32-27 69-17 79 9-29 6-56 2-79-9z"/><path d="M380 255c32-32 71-22 83 4-30 9-56 6-83-4z"/><path d="M225 280c27-31 65-26 80-2-26 10-53 10-80 2z"/></g><g stroke="#667044" stroke-width="7" stroke-linecap="round"><path d="M280 165l20 25m-9-45l26 31m-2 78l27 30m-88-46l21 24"/></g><g fill="#8b6946"><circle cx="310" cy="225" r="12"/><circle cx="355" cy="200" r="10"/><circle cx="275" cy="240" r="9"/></g></svg>
